<svg role="img" viewBox="0 0 27 24" xmlns="http://www.w3.org/2000/svg"><title>RizomUV</title>
<path d="M13.226 7.38811V0C13.226 0 18.3122 1.32735 20.0741 1.78636C20.4134 1.87407 20.6396 2.19568 20.6009 2.54067C20.4134 4.23055 19.8955 8.91427 19.8955 8.91427L13.226 7.38811Z" opacity="0.85"/>
<path d="M18.8203 18.2139C18.8203 18.2139 18.4186 21.8772 18.2519 23.3741C18.2132 23.7308 17.9067 23.9998 17.5436 23.9998H10.2877C9.93358 23.9998 9.63002 23.7425 9.5824 23.3975C9.37109 21.9152 8.84134 18.2139 8.84134 18.2139H18.8203Z" opacity="0.85"/>
<path d="M9.1695 23.9841C8.81831 23.9548 8.48201 23.6888 8.03856 23.3058C6.98203 22.3995 2.90472 18.9057 2.19639 18.3005C2.12794 18.242 2.0833 18.1631 2.0714 18.0753C1.85414 16.6457 0 4.38965 0 4.38965L6.22907 5.73746C6.22907 5.73746 8.27963 20.0137 8.72903 23.2064C8.81236 23.7882 9.09807 23.9051 9.1695 23.9841Z"/>
<path d="M25.5184 18.0861C25.5095 18.1709 25.4679 18.2498 25.4024 18.3054C24.6196 18.9954 19.5424 23.4598 19.5424 23.4598C19.5424 23.4598 18.9084 23.989 18.5751 23.9919C18.9293 23.7843 19.0126 23.4656 19.0275 23.3399C19.4382 19.9631 21.0602 4.92081 21.3042 2.65204C21.3251 2.47369 21.2923 2.18133 21.0751 2.0293C21.3697 2.11116 21.6971 2.61111 21.6971 2.61111C21.6971 2.61111 25.8518 8.60171 26.4649 9.48465C26.5125 9.55482 26.5333 9.63961 26.5244 9.7244C26.4053 10.7184 25.6375 17.0891 25.5184 18.089V18.0861Z"/>
</svg>
