<?xml version="1.0" encoding="UTF-8" standalone="no"?><!DOCTYPE svg PUBLIC "-//W3C//DTD SVG 1.1//EN" "http://www.w3.org/Graphics/SVG/1.1/DTD/svg11.dtd"><svg width="100%" height="100%" viewBox="0 0 204 234" version="1.1" xmlns="http://www.w3.org/2000/svg" xmlns:xlink="http://www.w3.org/1999/xlink" xml:space="preserve" xmlns:serif="http://www.serif.com/" style="fill-rule:evenodd;clip-rule:evenodd;stroke-linejoin:round;stroke-miterlimit:2;"><g><path d="M167.875,17.55l-131.75,0c-19.975,0 -36.125,16.15 -36.125,36.125l0,126.65c0,19.975 16.15,36.125 36.125,36.125l131.75,-0c19.975,-0 36.125,-16.15 36.125,-36.125l-0,-126.65c-0,-19.975 -16.15,-36.125 -36.125,-36.125Zm-64.09,98.94c-3.4,4.76 -8.16,8.33 -13.685,10.37c-6.12,2.21 -12.665,3.315 -19.125,3.23c-2.04,0 -3.4,0 -4.25,-0.085c-0.85,-0.085 -2.04,-0.085 -3.655,-0.085l0,26.945c0.085,0.595 -0.34,1.105 -0.935,1.19l-17.085,0c-0.68,0 -0.935,-0.34 -0.935,-1.105l0,-87.38c0,-0.68 0.255,-0.935 0.85,-0.935c1.445,0 3.23,0 5.185,-0.085c2.04,-0.085 4.165,-0.085 6.46,-0.17c2.295,-0.085 4.76,-0.085 7.395,-0.17c2.635,-0.085 5.185,-0.085 7.735,-0.085c6.97,0 12.75,0.85 17.51,2.635c4.25,1.445 8.16,3.825 11.39,6.97c2.72,2.72 4.845,6.035 6.205,9.69c1.275,3.57 1.955,7.225 1.955,11.05c0.085,7.31 -1.615,13.345 -5.015,18.02Zm56.525,-11.475c0.085,0.425 -0.255,0.85 -0.68,0.935l-13.005,0l-0,29.325c-0,3.06 0.51,5.355 1.615,6.63c1.02,1.36 2.975,1.955 5.78,1.955c0.85,0 1.615,0 2.295,-0.085c0.765,-0.085 1.445,-0.085 2.21,-0.17c0.255,-0.085 0.51,-0.085 0.765,0.085c0.255,0.17 0.34,0.425 0.34,0.85l-0,11.22c-0,1.02 -0.34,1.615 -1.105,1.785c-1.785,0.595 -3.655,1.02 -5.44,1.36c-2.21,0.425 -4.335,0.595 -6.545,0.51c-5.95,-0 -10.625,-1.53 -13.94,-4.675c-3.4,-3.06 -5.1,-8.075 -5.1,-14.875l-0,-33.915l-8.075,0c-0.765,0 -1.105,-0.425 -1.105,-1.19l-0,-13.515c-0,-0.765 0.425,-1.105 1.19,-1.105l8.075,0c0.085,-1.53 0.17,-3.315 0.34,-5.44c0.17,-2.04 0.34,-4.08 0.51,-6.12c0.255,-2.04 0.425,-3.74 0.595,-5.015c0.085,-0.255 0.255,-0.51 0.425,-0.765c0.17,-0.255 0.425,-0.425 0.68,-0.51l16.32,-2.04c0.34,-0.085 0.595,-0.085 0.765,0c0.17,0.085 0.17,0.34 0.17,0.765c-0.17,2.125 -0.34,4.93 -0.425,8.585c-0.085,3.57 -0.17,7.055 -0.255,10.455l12.75,0c0.51,0 0.85,0.34 0.85,1.105l-0,13.855Z" style="fill-rule:nonzero;"/><path d="M82.28,86.485c-3.145,-1.275 -6.545,-1.785 -10.03,-1.7c-2.21,0 -4.165,0 -5.78,0.085c-1.7,0.085 -2.89,0.085 -3.485,0.17l0,28.305c1.19,0.085 2.295,0.17 3.315,0.17l4.505,-0c3.315,0.085 6.63,-0.425 9.775,-1.36c2.72,-0.765 5.1,-2.38 6.97,-4.505c1.785,-2.125 2.635,-5.015 2.635,-8.755c0.085,-2.635 -0.595,-5.27 -1.955,-7.565c-1.445,-2.21 -3.485,-3.91 -5.95,-4.845Z" style="fill-rule:nonzero;"/></g></svg>